<svg version="1.1"
     baseProfile="full"
     width="512" height="512"
     xmlns="http://www.w3.org/2000/svg">
     <circle cx="256" cy="256" r="200" stroke="black" stroke-width="16" fill="white"></circle>
   	<circle cx="256" cy="256" r="10" stroke="black" stroke-width="8" fill="white"></circle>
<line x1="266" y1="256" x2="456" y2="256" style="stroke:rgb(0,0,0);stroke-width:4"></line><line x1="265" y1="259" x2="446" y2="317" style="stroke:rgb(0,0,0);stroke-width:4"></line><line x1="264" y1="261" x2="417" y2="373" style="stroke:rgb(0,0,0);stroke-width:4"></line><line x1="261" y1="264" x2="373" y2="417" style="stroke:rgb(0,0,0);stroke-width:4"></line><line x1="259" y1="265" x2="317" y2="446" style="stroke:rgb(0,0,0);stroke-width:4"></line><line x1="256" y1="266" x2="256" y2="456" style="stroke:rgb(0,0,0);stroke-width:4"></line><line x1="252" y1="265" x2="194" y2="446" style="stroke:rgb(0,0,0);stroke-width:4"></line><line x1="250" y1="264" x2="138" y2="417" style="stroke:rgb(0,0,0);stroke-width:4"></line><line x1="247" y1="261" x2="94" y2="373" style="stroke:rgb(0,0,0);stroke-width:4"></line><line x1="246" y1="259" x2="65" y2="317" style="stroke:rgb(0,0,0);stroke-width:4"></line><line x1="246" y1="256" x2="56" y2="256" style="stroke:rgb(0,0,0);stroke-width:4"></line><line x1="246" y1="252" x2="65" y2="194" style="stroke:rgb(0,0,0);stroke-width:4"></line><line x1="247" y1="250" x2="94" y2="138" style="stroke:rgb(0,0,0);stroke-width:4"></line><line x1="250" y1="247" x2="138" y2="94" style="stroke:rgb(0,0,0);stroke-width:4"></line><line x1="252" y1="246" x2="194" y2="65" style="stroke:rgb(0,0,0);stroke-width:4"></line><line x1="256" y1="246" x2="255" y2="56" style="stroke:rgb(0,0,0);stroke-width:4"></line><line x1="259" y1="246" x2="317" y2="65" style="stroke:rgb(0,0,0);stroke-width:4"></line><line x1="261" y1="247" x2="373" y2="94" style="stroke:rgb(0,0,0);stroke-width:4"></line><line x1="264" y1="250" x2="417" y2="138" style="stroke:rgb(0,0,0);stroke-width:4"></line><line x1="265" y1="252" x2="446" y2="194" style="stroke:rgb(0,0,0);stroke-width:4"></line>
</svg>
